<svg width="206" height="209" viewBox="0 0 206 209" fill="none" xmlns="http://www.w3.org/2000/svg">
<rect width="206" height="209.001" fill="#00204A"/>
<path d="M125.811 104.007H84.4653L64.6152 189.001H147.196L125.811 104.007Z" fill="white"/>
<path d="M92.5804 86.0211L95.3222 100.607C102.78 92.4916 113.418 96.659 116.379 100.607L119.23 86.0211H132.939L125.81 79.8796H85.1229L77.8848 86.0211H92.5804Z" fill="white"/>
<path d="M122.74 78.015H88.4141L90.8268 71.5445L106.071 70.3381L92.0331 67.3771L101.245 38.9728L92.8008 27.5672L97.7359 20L96.5296 27.5672L109.032 34.257L113.748 49.9397L106.948 53.3394H115.064L122.74 78.015Z" fill="white"/>
<path d="M91.1538 108.942C95.3207 90.0787 119.777 92.0526 120.545 109.929L118.352 106.419C119.777 110.258 120.303 119.361 119.777 124.625L117.803 116.729C117.803 122.907 117.584 135.767 116.706 137.785L115.171 119.361C114.075 137.785 110.324 147.896 105.411 153.248C97.7339 141.623 96.6372 123.462 96.6372 118.812L95.3207 137.785C94.3929 132.218 92.9853 122.777 93.546 118.037L92.1403 125.721C91.263 120.877 90.3547 112.561 91.1538 108.942Z" fill="#00204A"/>
<path d="M79.6029 43.0087C79.3689 42.3067 78.3776 42.3067 78.1437 43.0087L76.7716 47.129C76.4698 48.0345 75.9613 48.8573 75.2864 49.5322C74.6115 50.2072 73.7887 50.7157 72.8832 51.0175L68.7628 52.3895C68.6091 52.4399 68.4753 52.5376 68.3804 52.6686C68.2855 52.7997 68.2344 52.9573 68.2344 53.1191C68.2344 53.2809 68.2855 53.4385 68.3804 53.5695C68.4753 53.7006 68.6091 53.7983 68.7628 53.8487L72.8832 55.2207C73.7887 55.5225 74.6115 56.031 75.2864 56.7059C75.9613 57.3809 76.4698 58.2037 76.7716 59.1092L78.1437 63.2295C78.1941 63.3833 78.2918 63.5171 78.4228 63.612C78.5538 63.7069 78.7115 63.758 78.8733 63.758C79.0351 63.758 79.1927 63.7069 79.3237 63.612C79.4547 63.5171 79.5524 63.3833 79.6029 63.2295L80.9749 59.1113C81.2764 58.2054 81.7848 57.3822 82.4597 56.7069C83.1347 56.0316 83.9576 55.5227 84.8634 55.2207L88.9837 53.8487C89.6857 53.6147 89.6857 52.6235 88.9837 52.3895L84.8655 51.0175C83.9596 50.7159 83.1364 50.2076 82.461 49.5326C81.7857 48.8577 81.2769 48.0347 80.9749 47.129L79.6029 43.0087Z" fill="white"/>
<path d="M139.577 93.7269C139.418 93.2492 138.743 93.2492 138.584 93.7269L137.651 96.5304C137.445 97.1465 137.099 97.7064 136.64 98.1656C136.181 98.6248 135.621 98.9708 135.005 99.1762L132.201 100.11C132.097 100.144 132.006 100.211 131.941 100.3C131.877 100.389 131.842 100.496 131.842 100.606C131.842 100.716 131.877 100.823 131.941 100.913C132.006 101.002 132.097 101.068 132.201 101.103L135.005 102.036C135.621 102.241 136.181 102.587 136.64 103.047C137.099 103.506 137.445 104.066 137.651 104.682L138.584 107.485C138.619 107.59 138.685 107.681 138.774 107.746C138.863 107.81 138.971 107.845 139.081 107.845C139.191 107.845 139.298 107.81 139.387 107.746C139.476 107.681 139.543 107.59 139.577 107.485L140.511 104.683C140.716 104.067 141.062 103.507 141.521 103.047C141.98 102.588 142.54 102.242 143.156 102.036L145.96 101.103C146.438 100.943 146.438 100.269 145.96 100.11L143.158 99.1762C142.541 98.971 141.981 98.6251 141.522 98.1659C141.062 97.7066 140.716 97.1467 140.511 96.5304L139.577 93.7269Z" fill="white"/>
<path d="M63.8424 126.284C63.7387 125.972 63.2992 125.972 63.1955 126.284L62.5873 128.11C62.4535 128.512 62.2281 128.876 61.9289 129.176C61.6297 129.475 61.265 129.7 60.8635 129.834L59.037 130.442C58.9689 130.465 58.9095 130.508 58.8675 130.566C58.8254 130.624 58.8027 130.694 58.8027 130.766C58.8027 130.837 58.8254 130.907 58.8675 130.965C58.9095 131.023 58.9689 131.067 59.037 131.089L60.8635 131.697C61.265 131.831 61.6297 132.056 61.9289 132.356C62.2281 132.655 62.4535 133.02 62.5873 133.421L63.1955 135.248C63.2179 135.316 63.2612 135.375 63.3193 135.417C63.3773 135.459 63.4472 135.482 63.5189 135.482C63.5907 135.482 63.6605 135.459 63.7186 135.417C63.7767 135.375 63.82 135.316 63.8424 135.248L64.4506 133.422C64.5843 133.02 64.8096 132.655 65.1088 132.356C65.408 132.057 65.7728 131.831 66.1744 131.697L68.0009 131.089C68.3121 130.985 68.3121 130.546 68.0009 130.442L66.1753 129.834C65.7737 129.7 65.4088 129.475 65.1094 129.176C64.81 128.877 64.5845 128.512 64.4506 128.11L63.8424 126.284Z" fill="white"/>
</svg>
